<svg xmlns="http://www.w3.org/2000/svg" version="1.1" xmlns:xlink="http://www.w3.org/1999/xlink" xmlns:svgjs="http://svgjs.dev/svgjs" width="1000" height="1000" viewBox="0 0 1000 1000"><rect width="1000" height="1000" fill="#0a1627"></rect><g transform="matrix(0.7,0,0,0.7,150.26307642971284,238.411983805668)"><svg viewBox="0 0 330 247" data-background-color="#0a1627" preserveAspectRatio="xMidYMid meet" height="748" width="1000" xmlns="http://www.w3.org/2000/svg" xmlns:xlink="http://www.w3.org/1999/xlink"><g id="tight-bounds" transform="matrix(1,0,0,1,-0.12380696196962049,-0.09999999999999432)"><svg viewBox="0 0 330.24776190971915 247.2" height="247.2" width="330.24776190971915"><g><svg viewBox="0 0 395.52 296.0581577740665" height="247.2" width="330.24776190971915"><g transform="matrix(1,0,0,1,0,148.7273511527186)"><svg viewBox="0 0 395.52 147.3308066213479" height="147.3308066213479" width="395.52"><g id="textblocktransform"><svg viewBox="0 0 395.52 147.3308066213479" height="147.3308066213479" width="395.52" id="textblock"><g><svg viewBox="0 0 395.52 107.14723761883602" height="107.14723761883602" width="395.52"><path d="M394.594 22.981C392.735 11.859 387.435 8.767 387.435 8.767 371.165-2.688 350.86-0.219 332.619 1.427 300.414 1.494 268.339 3.94 236.208 5.253 168.767 5.453 100.749 2.161 33.643 10.28 27.339 12.771-6.54 10.769 1.121 24.405 3.129 30.077 10.456 36.372 10.232 41.577 11.236 42.489 12.631 40.398 13.226 41.71 15.309 45.247 18.711 43.579 21.501 45.67 17.614 51.253 20.403 55.902 23.062 60.773 18.377 62.041 12.371 61.44 9.675 65.644 9.396 68.692 7.89 68.113 6.235 67.98 5.026 67.891 2.59 68.225 2.999 69.181 4.394 72.451-1.594 74.342 2.162 77.545-0.422 81.015 3.948 84.018 3.353 87.777 3.278 88.533 3.687 89.178 4.338 89.356 7.22 90.313 3.018 92.181 3.464 94.205 33.029 108.041 65.104 98.476 95.394 104.838 103.259 100.389 97.346 106.417 100.489 105.483 102.943 104.393 104.728 108.908 107.499 106.35 107.927 105.616 107.276 103.881 108.8 104.215 109.6 104.393 110.307 104.348 110.418 103.325 110.586 101.79 109.117 102.747 108.726 101.946 112.947 97.898 111.906 107.529 115.866 107.129 115.68 105.95 114.528 104.259 116.889 104.482 119.232 102.791 119.306 101.39 121.389 105.194 121.463 106.017 121.835 106.595 122.43 106.995 128.938 102.858 135.409 108.464 142.233 106.595 146.417 104.549 150.433 107.707 154.672 106.929 156.16 106.306 157.666 105.194 159.098 107.062 176.632 107.463 195.319 105.794 211.943 107.129 256.364 104.638 303.835 108.152 350.674 104.86 361.719 103.592 373.192 101.79 383.958 100.345 383.958 100.345 392.679 96.385 392.679 78.59S394.538 63.02 394.817 48.85C395.096 34.681 396.398 34.103 394.538 22.981Z" opacity="1" fill="#fe0039" data-fill-palette-color="tertiary"></path><g transform="matrix(1,0,0,1,55.76832,26.068561146666667)"><svg width="283.98335999999995" viewBox="-4.599999904632568 -29.600000381469727 251.12001037597656 48.650001525878906" height="55.010115325502674" data-palette-color="#0a1627"><path d="M29.5-10.95L29.5-10.95 17.1-12.6Q9.5 4.65 2.35 6.85L2.35 6.85Q1.05 7.3 0.05 7.3L0.05 7.3Q-3.7 7.3-4.55 4.15L-4.55 4.15Q-4.6 3.95-4.6 3.73-4.6 3.5-4.53 3.18-4.45 2.85-4.2 2.95-3.95 3.05-3.7 3.9L-3.7 3.9Q-3.25 5.35-1.8 5.75L-1.8 5.75Q-0.7 5.95 0.13 5.95 0.95 5.95 1.55 5.75L1.55 5.75Q8.85 3.45 15.2-12.85L15.2-12.85 12.55-13Q11.85-13.05 11.25-13.05L11.25-13.05Q4.9-13.05 3.45-8.95L3.45-8.95Q3.2-8.4 3.2-7.9 3.2-7.4 3.5-6.9 3.8-6.4 3.33-6.28 2.85-6.15 2.55-6.6L2.55-6.6Q2-7.6 2-8.45L2-8.45Q2-11.5 3.13-12.98 4.25-14.45 5.75-14.9L5.75-14.9Q7.55-15.4 9.75-15.4L9.75-15.4 12.8-15.1Q14.4-14.95 15.85-14.65L15.85-14.65Q17.05-17.85 18.75-23.25L18.75-23.25Q16.1-20.9 12.25-20.5L12.25-20.5Q11.75-20.45 11.73-20.85 11.7-21.25 12.3-21.35L12.3-21.35Q14.45-21.55 16.73-23.55 19-25.55 20.2-28.25L20.2-28.25Q20.3-28.85 21.85-28.85 23.4-28.85 23.35-28.25L23.35-28.25Q23.05-27.5 21.13-22.48 19.2-17.45 17.8-14.25L17.8-14.25Q19.1-14 21.6-13.4L21.6-13.4Q26.7-12.25 29.85-11.9L29.85-11.9Q32.75-18.05 33.48-19.78 34.2-21.5 34.2-21.95 34.2-22.4 34.05-22.65L34.05-22.65Q34.2-24.05 36.23-26.33 38.25-28.6 40.05-28.6L40.05-28.6Q40.85-28.6 41.98-28.03 43.1-27.45 43.1-26.55L43.1-26.55Q43.1-26.35 42.85-26.5 42.6-26.65 42.5-26.65L42.5-26.65Q41.25-26.65 39.6-24.88 37.95-23.1 36.35-20.3L36.35-20.3Q33.9-15.95 32-11.7L32-11.7Q36.3-11.7 37.75-13.5L37.75-13.5Q38-13.95 38.25-13.63 38.5-13.3 38.08-12.68 37.65-12.05 36.2-11.45 34.75-10.85 31.6-10.85L31.6-10.85Q29.25-5.3 29.25-2.15L29.25-2.15Q29.25 0.3 30.68 0.3 32.1 0.3 34.93-1.9 37.75-4.1 40.25-7.45L40.25-7.45Q40.4-7.65 40.7-7.53 41-7.4 40.88-7.08 40.75-6.75 40.1-5.8L40.1-5.8Q38-2.95 34.95-0.5L34.95-0.5Q32.7 1.25 30.05 1.25L30.05 1.25Q28.7 1.25 27.98 0.45 27.25-0.35 27.18-1.05 27.1-1.75 27.1-2.35 27.1-2.95 27.3-4.2L27.3-4.2Q27.8-7.4 29.5-10.95ZM42.05 0.55L42.05 0.55Q41.25 0.55 40.32 0.08 39.4-0.4 38.75-1.28 38.1-2.15 38.1-3.15 38.1-4.15 38.55-5.05L38.55-5.05Q39.55-7.15 41.77-9.13 44-11.1 46.4-12.5 48.8-13.9 50.2-14.25 51.6-14.6 52.92-14.6 54.25-14.6 55.2-13.93 56.15-13.25 56.15-12.5L56.15-12.5Q56.15-12.25 56.1-12.2 56.05-12.15 55.85-12.25L55.85-12.25Q55.25-13.2 53.37-13.2 51.5-13.2 49.12-11.98 46.75-10.75 44.65-8.9L44.65-8.9Q42.9-7.25 41.57-5.18 40.25-3.1 40.25-2.15L40.25-2.15Q40.25-0.3 41.3-0.3 42.35-0.3 44.5-2L44.5-2Q48.05-5 49.35-6.4L49.35-6.4Q53.95-11.35 54.3-11.35L54.3-11.35Q54.9-11.35 55.75-11 56.6-10.65 56.3-10.15L56.3-10.15Q53.75-6.55 53.3-2.9L53.3-2.9Q53.25-2.45 53.25-1.75 53.25-1.05 53.65-0.6L53.65-0.6Q54.4 0.2 55.7-0.5 57-1.2 59.32-3.3 61.65-5.4 63.05-7.4L63.05-7.4Q63.25-7.65 63.5-7.53 63.75-7.4 63.75-7.3L63.75-7.3Q63.75-6.55 61.37-4.03 59-1.5 57.75-0.6L57.75-0.6Q55.4 1.15 53.4 1.15L53.4 1.15Q51.5 1.15 50.85-0.75L50.85-0.75Q50.7-1.35 50.7-2.1L50.7-2.1Q50.7-4.35 51.65-6.85L51.65-6.85Q51.45-6.75 49.8-4.85 48.15-2.95 45.97-1.2 43.8 0.55 42.05 0.55ZM68.95-13L68.95-13Q68.95-12.65 68.4-11.48 67.85-10.3 65.25-3.4L65.25-3.4Q67.05-5.6 69.8-8.5L69.8-8.5Q75.35-14.3 77.45-14.3L77.45-14.3Q77.9-14.3 78.32-14.05 78.75-13.8 78.75-12.93 78.75-12.05 78.2-10.98 77.65-9.9 76.95-8.35 76.25-6.8 76-6.4L76-6.4Q80.2-10.2 82.35-11.03 84.5-11.85 85.2-11.85 85.9-11.85 85.9-11.35L85.9-11.35Q85.9-11.05 85.15-9.9 84.4-8.75 83.5-6.5 82.6-4.25 82.5-3.35 82.4-2.45 82.4-1.75 82.4-1.05 82.8-0.6L82.8-0.6Q83.55 0.2 84.85-0.5 86.15-1.2 88.47-3.3 90.8-5.4 92.2-7.4L92.2-7.4Q92.4-7.65 92.67-7.53 92.95-7.4 92.95-7.28 92.95-7.15 92.85-7L92.85-7Q92.1-5.65 90.15-3.55L90.15-3.55Q86.95-0.1 84.8 0.7L84.8 0.7Q82.45 1.5 81.4 0.9 80.35 0.3 80.1-0.45 79.85-1.2 79.85-1.95L79.85-1.95Q79.85-4.3 80.77-6.65 81.7-9 82.25-9.85L82.25-9.85Q80.35-9.05 79-7.85L79-7.85Q76.95-6.05 75.7-4.7L75.7-4.7 74.7-3.6Q74.25-2.5 73.12-2.35 72-2.2 72.05-3.1L72.05-3.1Q72.15-4.05 73.9-7.35 75.65-10.65 75.65-11.03 75.65-11.4 75.25-11.4L75.25-11.4Q74.35-11.4 72-9.35L72-9.35Q70.45-7.9 67.42-3.88 64.4 0.15 64 0.4L64 0.4Q62.2 1.3 61.75 1.3 61.3 1.3 61.3 1.15 61.3 1 61.45 0.7 61.6 0.4 64.5-8L64.5-8Q63.4-6.3 62.5-5.4L62.5-5.4Q62.1-4.95 62.1-5.58 62.1-6.2 62.45-6.65L62.45-6.65Q64.7-9.6 65.75-11.65L65.75-11.65Q66.05-13.4 66.95-13.7L66.95-13.7Q67.5-13.9 68.22-13.7 68.95-13.5 68.95-13ZM96.39-13.85L96.39-13.85Q97.64-13.85 97.89-13.05L97.89-13.05Q97.99-12.6 97.77-12.18 97.54-11.75 97.44-11.5 97.34-11.25 97.29-11.1L97.29-11.1Q97.04-10.6 96.79-10.15L96.79-10.15Q93.94-4.45 93.79-2.9L93.79-2.9Q93.74-2.45 93.74-1.75 93.74-1.05 94.14-0.6L94.14-0.6Q94.84 0.2 96.14-0.5 97.44-1.2 99.77-3.3 102.09-5.4 103.54-7.4L103.54-7.4Q103.74-7.65 103.99-7.53 104.24-7.4 104.24-7.28 104.24-7.15 104.14-7L104.14-7Q103.39-5.65 101.44-3.55L101.44-3.55Q98.24-0.1 96.09 0.7L96.09 0.7Q94.84 1.15 93.99 1.15L93.99 1.15Q91.99 1.15 91.34-0.75L91.34-0.75Q91.24-1.1 91.24-1.6L91.24-1.6Q91.24-3.35 92.84-6.9L92.84-6.9Q92.59-6.35 90.89-4.4L90.89-4.4Q90.44-3.9 90.19-4.4L90.19-4.4Q90.14-4.5 90.14-4.67 90.14-4.85 90.34-5.1L90.34-5.1Q92.79-8.15 94.19-10.25L94.19-10.25Q94.09-10.5 94.29-10.9L94.29-10.9Q95.29-13.7 96.04-13.85L96.04-13.85Q96.19-13.85 96.39-13.85ZM100.34-20.5L100.34-20.5 99.94-18.9Q99.94-18.45 99.29-17.45 98.64-16.45 98.29-16.45L98.29-16.45Q96.14-16.45 96.14-17.5L96.14-17.5Q96.14-17.7 98.29-19.35L98.29-19.35 99.14-20Q99.94-20.7 100.14-20.7 100.34-20.7 100.34-20.5ZM110.24-13.95L110.89-14Q114.74-14.35 115.57-14.35 116.39-14.35 116.39-14.1L116.39-14.1Q116.39-13.8 115.22-13.48 114.04-13.15 109.49-12.65L109.49-12.65Q109.24-12.2 108.89-11.6L108.89-11.6Q108.14-10.4 108.09-10.15L108.09-10.15Q105.24-4.45 105.09-2.9L105.09-2.9Q105.04-2.45 105.04-1.75 105.04-1.05 105.44-0.6L105.44-0.6Q106.14 0.2 107.44-0.5 108.74-1.2 111.07-3.3 113.39-5.4 114.84-7.4L114.84-7.4Q115.04-7.65 115.34-7.5L115.34-7.5Q116.09-7.15 112.74-3.55L112.74-3.55Q109.54-0.1 107.39 0.7L107.39 0.7Q106.14 1.15 105.29 1.15L105.29 1.15Q103.29 1.15 102.64-0.75L102.64-0.75Q102.54-1.1 102.54-1.6L102.54-1.6Q102.54-3.35 104.14-6.9L104.14-6.9Q103.89-6.35 102.19-4.4L102.19-4.4Q101.74-3.9 101.49-4.4L101.49-4.4Q101.44-4.5 101.44-4.67 101.44-4.85 101.64-5.1L101.64-5.1Q104.09-8.15 105.49-10.25L105.49-10.25Q105.49-10.3 106.59-12.35L106.59-12.35Q106.09-12.25 105.57-12.25 105.04-12.25 104.79-12.58 104.54-12.9 104.74-13.35L104.74-13.35Q105.09-14.15 107.39-14.25L107.39-14.25Q107.44-14.35 107.59-14.35L107.59-14.35 110.09-19Q110.29-19.4 110.54-19.83 110.79-20.25 110.92-20.48 111.04-20.7 111.19-20.95 111.34-21.2 111.44-21.3 111.54-21.4 111.64-21.5L111.64-21.5Q111.84-21.8 112.82-21.8 113.79-21.8 114.14-21.25L114.14-21.25Q114.29-21.05 114.29-20.58 114.29-20.1 113.94-19.53 113.59-18.95 113.19-18.7 112.79-18.45 112.64-18.15L112.64-18.15 110.24-13.95ZM155.39-26.4L155.39-26.4Q155.39-25.3 154.49-23.85L154.49-23.85Q153.74-22.5 152.81-22 151.89-21.5 151.89-22.1L151.89-22.1Q151.89-22.15 152.44-22.7L152.44-22.7Q154.09-24.25 154.09-25.25L154.09-25.25Q154.09-27.4 149.84-27.4L149.84-27.4Q148.04-27.4 145.09-26.73 142.14-26.05 139.39-24.55L139.39-24.55Q136.19-22.8 136.19-21.5L136.19-21.5Q136.19-20.45 138.14-19.5L138.14-19.5Q139.19-19 142.31-17.82 145.44-16.65 147.36-15.78 149.29-14.9 151.01-13.3 152.74-11.7 152.74-9.75 152.74-7.8 150.44-5.5L150.44-5.5Q146.94-2.15 141.34 0.08 135.74 2.3 131.74 2.3L131.74 2.3Q123.84 2.3 123.84-2.15 123.84-6.6 128.69-9.7L128.69-9.7Q132.69-12.45 137.09-12.45L137.09-12.45Q138.14-12.45 138.04-12.1L138.04-12.1Q137.94-11.75 136.54-11.73 135.14-11.7 132.94-10.78 130.74-9.85 128.84-8.1L128.84-8.1Q126.34-5.85 126.34-3.6L126.34-3.6Q126.34-2.2 127.69-1.1 129.04 0 132.84 0 136.64 0 140.34-1.2L140.34-1.2Q148.34-3.85 150.34-7L150.34-7Q151.14-8.15 151.14-8.95L151.14-8.95Q151.14-11.25 148.34-12.55L148.34-12.55Q145.09-14.05 139.24-16L139.24-16Q136.99-16.75 135.41-17.98 133.84-19.2 133.84-20.93 133.84-22.65 135.71-24.33 137.59-26 140.24-27L140.24-27Q145.94-29.15 149.89-29.15L149.89-29.15Q155.39-29.15 155.39-26.4ZM166.28-14.55L166.28-14.55Q168.98-14.55 168.98-11.95L168.98-11.95Q168.98-10.6 168.23-9.75L168.23-9.75Q166.98-7.9 164.18-6.53 161.38-5.15 159.43-5L159.43-5Q158.73-4.95 158.68-5.4L158.68-5.4Q158.63-5.6 158.81-5.65 158.98-5.7 159.08-5.7L159.08-5.7Q160.23-5.8 162.03-6.8L162.03-6.8Q165.38-8.6 166.93-10.5L166.93-10.5Q167.58-11.4 167.58-12.23 167.58-13.05 166.78-13.05L166.78-13.05Q166.13-13.05 165.03-12.5L165.03-12.5Q162.68-11.4 160.08-8.68 157.48-5.95 156.68-3.35L156.68-3.35Q156.43-2.55 156.43-1.78 156.43-1 157.08-0.3 157.73 0.4 159.08 0.4L159.08 0.4Q160.58 0.4 162.53-0.4L162.53-0.4Q168.18-2.7 171.23-7.35L171.23-7.35Q171.53-7.75 171.78-7.5L171.78-7.5Q171.98-7.4 171.98-7.25 171.98-7.1 171.83-6.9L171.83-6.9Q170.33-4.4 168.03-2.45L168.03-2.45Q163.58 1.35 159.38 1.35L159.38 1.35Q155.78 1.35 154.33-0.8L154.33-0.8Q153.78-1.65 153.78-2.85 153.78-4.05 154.43-5.7L154.43-5.7Q155.68-8.55 159.78-11.55 163.88-14.55 166.28-14.55ZM187.83-29.25L187.83-29.25Q188.73-29.6 189.38-29.6L189.38-29.6Q191.58-29.6 192.28-28.4L192.28-28.4Q192.68-27.8 192.68-27.35L192.68-27.35Q192.68-23.95 186.98-18.8L186.98-18.8Q181.93-14.35 177.68-11.15L177.68-11.15Q176.28-8 174.78-3.4L174.78-3.4Q176.58-5.6 179.33-8.5L179.33-8.5Q184.88-14.25 187.08-14.25L187.08-14.25Q188.18-14.25 188.23-13.15L188.23-13.15Q188.33-12 187.75-10.95 187.18-9.9 186.68-9L186.68-9Q184.33-5.1 184.33-2.05L184.33-2.05Q184.33-1.05 184.73-0.6L184.73-0.6Q185.43 0.2 186.73-0.5 188.03-1.2 190.36-3.3 192.68-5.4 194.13-7.4L194.13-7.4Q194.38-7.65 194.61-7.53 194.83-7.4 194.83-7.28 194.83-7.15 194.73-7L194.73-7Q193.98-5.65 192.03-3.58 190.08-1.5 188.88-0.6L188.88-0.6Q186.58 1.15 184.48 1.15L184.48 1.15Q182.58 1.15 181.93-0.75L181.93-0.75Q181.78-1.2 181.78-1.83 181.78-2.45 181.88-3.15L181.88-3.15Q182.13-5.25 184.53-9.7L184.53-9.7Q185.03-10.6 185.03-10.98 185.03-11.35 184.63-11.35L184.63-11.35Q183.83-11.35 181.53-9.35L181.53-9.35Q179.98-7.9 176.96-3.88 173.93 0.15 173.53 0.4L173.53 0.4Q171.73 1.3 171.31 1.3 170.88 1.3 170.83 1.18 170.78 1.05 170.88 0.85 170.98 0.65 171.68-1.35L171.68-1.35Q174.03-8 174.88-10.15L174.88-10.15Q173.23-8.05 170.78-5.4L170.78-5.4Q170.38-5 170.38-5.58 170.38-6.15 170.83-6.75 171.28-7.35 172.71-9.08 174.13-10.8 174.73-11.65L174.73-11.65Q174.28-11.9 174.25-12.35 174.23-12.8 174.56-12.98 174.88-13.15 175.63-12.85L175.63-12.85Q176.13-13.55 176.53-14.4L176.53-14.4Q182.48-27.2 187.83-29.25ZM190.63-25.5L190.63-25.5Q191.28-26.7 191.28-27.53 191.28-28.35 190.56-28.35 189.83-28.35 188.63-27.45L188.63-27.45Q183.13-23.25 178.68-13.4L178.68-13.4Q181.93-15.5 185.48-19 189.03-22.5 190.63-25.5ZM182.08 19.05L182.08 19.05Q181.68 19.05 181.08 18.9L181.08 18.9Q178.48 18.2 178.48 16.18 178.48 14.15 181.13 11.13 183.78 8.1 192.23 2.5L192.23 2.5Q195.83-4.95 197.53-10.25L197.53-10.25Q197.13-9.75 195.88-8.28 194.63-6.8 194.28-6.3 193.93-5.8 193.63-6.25L193.63-6.25Q193.53-6.6 193.78-6.95L193.78-6.95Q194.73-8.1 196.33-10.28 197.93-12.45 198.28-12.85L198.28-12.85Q199.28-13.75 201.08-12.6L201.08-12.6Q201.73-12.15 201.58-11.85L201.58-11.85Q198.68-5.05 196.18 0.35L196.18 0.35Q197.28-0.25 200.03-2.68 202.78-5.1 204.98-7.6L204.98-7.6Q206.08-8.9 206.08-8L206.08-8Q206.08-6.75 200.08-1.4L200.08-1.4Q196.58 1.7 195.18 2.5L195.18 2.5Q190.93 11.25 189.48 13.5L189.48 13.5Q185.63 19.05 182.08 19.05ZM191.28 4.4L191.28 4.4Q185.28 8.9 182.68 11.53 180.08 14.15 180.08 16.45L180.08 16.45Q180.08 17.15 180.53 17.45 180.98 17.75 181.48 17.75 181.98 17.75 182.93 17 183.88 16.25 184.55 15.53 185.23 14.8 185.73 14.18 186.23 13.55 186.85 12.58 187.48 11.6 187.83 11.05 188.18 10.5 188.8 9.33 189.43 8.15 189.65 7.73 189.88 7.3 190.5 6 191.13 4.7 191.28 4.4ZM205.08-20.5L205.08-20.5 204.68-18.9Q204.68-18.45 204-17.45 203.33-16.45 202.98-16.45L202.98-16.45Q200.83-16.45 200.83-17.5L200.83-17.5Q200.83-17.7 202.98-19.35L202.98-19.35 203.83-20Q204.73-20.7 204.9-20.7 205.08-20.7 205.08-20.5ZM206.73 0.55L206.73 0.55Q205.93 0.55 205 0.08 204.08-0.4 203.43-1.28 202.78-2.15 202.78-3.15 202.78-4.15 203.23-5.05L203.23-5.05Q204.23-7.15 206.45-9.13 208.68-11.1 211.08-12.5 213.48-13.9 214.88-14.25 216.28-14.6 217.6-14.6 218.93-14.6 219.88-13.93 220.83-13.25 220.83-12.5L220.83-12.5Q220.83-12.25 220.78-12.2 220.73-12.15 220.53-12.25L220.53-12.25Q219.93-13.2 218.05-13.2 216.18-13.2 213.8-11.98 211.43-10.75 209.33-8.9L209.33-8.9Q207.58-7.25 206.25-5.18 204.93-3.1 204.93-2.15L204.93-2.15Q204.93-0.3 205.98-0.3 207.03-0.3 209.18-2L209.18-2Q212.73-5 214.03-6.4L214.03-6.4Q218.63-11.35 218.98-11.35L218.98-11.35Q219.58-11.35 220.43-11 221.28-10.65 220.98-10.15L220.98-10.15Q218.43-6.55 217.98-2.9L217.98-2.9Q217.93-2.45 217.93-1.75 217.93-1.05 218.33-0.6L218.33-0.6Q219.08 0.2 220.38-0.5 221.68-1.2 224-3.3 226.33-5.4 227.73-7.4L227.73-7.4Q227.93-7.65 228.18-7.53 228.43-7.4 228.43-7.3L228.43-7.3Q228.43-6.55 226.05-4.03 223.68-1.5 222.43-0.6L222.43-0.6Q220.08 1.15 218.08 1.15L218.08 1.15Q216.18 1.15 215.53-0.75L215.53-0.75Q215.38-1.35 215.38-2.1L215.38-2.1Q215.38-4.35 216.33-6.85L216.33-6.85Q216.13-6.75 214.48-4.85 212.83-2.95 210.65-1.2 208.48 0.55 206.73 0.55ZM244.42-25.5L244.42-25.5Q245.02-26.6 245.02-27.2L245.02-27.2Q245.02-28.25 244.17-28.25L244.17-28.25Q243.47-28.25 242.42-27.45L242.42-27.45Q238.42-24.35 234.67-17.65L234.67-17.65Q231.67-12.25 230.27-8.4L230.27-8.4Q233.72-10.75 238-16.05 242.27-21.35 244.42-25.5ZM229.52-6.4L229.52-6.4Q228.92-4.7 228.87-4.13 228.82-3.55 228.82-2.58 228.82-1.6 229.32-0.8L229.32-0.8Q230.17 0.55 232.17-0.6L232.17-0.6Q233.67-1.4 235.97-3.53 238.27-5.65 239.52-7.4L239.52-7.4Q239.62-7.55 239.82-7.55L239.82-7.55Q240.27-7.55 240.07-6.9L240.07-6.9Q239.32-5.55 237.3-3.45 235.27-1.35 233.62-0.13 231.97 1.1 230.32 1.1L230.32 1.1Q226.52 1.1 226.52-2.6L226.52-2.6Q226.52-2.75 226.52-2.9L226.52-2.9Q226.72-6.4 230.07-13.48 233.42-20.55 236.12-24.15L236.12-24.15 237.67-26.1Q238.22-26.75 239.27-27.7L239.27-27.7Q241.27-29.6 243.4-29.6 245.52-29.6 246.27-28.3L246.27-28.3Q246.52-27.85 246.52-27 246.52-26.15 245.77-24.6L245.77-24.6Q240.62-15.65 229.52-6.4Z" opacity="1" transform="matrix(1,0,0,1,0,0)" fill="#0a1627" class="undefined-text-0" data-fill-palette-color="quaternary" id="text-0"></path></svg></g></svg></g><g transform="matrix(1,0,0,1,79.84984502006583,120.1338056044194)"><svg viewBox="0 0 235.82030995986833 27.197001016928528" height="27.197001016928528" width="235.82030995986833"><g transform="matrix(1,0,0,1,0,0)"><svg width="235.82030995986833" viewBox="1.75 -37 417.4599914550781 48.150001525878906" height="27.197001016928528" data-palette-color="#c1c1c1"><path d="M26.6-31.6L25.3-29.6Q24.45-30.55 23.4-31.28 22.35-32 21.15-32.48 19.95-32.95 18.55-33.2 17.15-33.45 15.55-33.45L15.55-33.45Q10.35-33.45 7.98-31.48 5.6-29.5 5.6-26.15L5.6-26.15Q5.6-23.9 6.68-22.58 7.75-21.25 10.05-20.45 12.35-19.65 16-18.9L16-18.9Q19.85-18.1 22.65-17.03 25.45-15.95 26.98-14.1 28.5-12.25 28.5-9.1L28.5-9.1Q28.5-6.75 27.6-4.98 26.7-3.2 25-2.05 23.3-0.9 20.98-0.3 18.65 0.3 15.8 0.3L15.8 0.3Q13.05 0.3 10.55-0.3 8.05-0.9 5.85-2.05 3.65-3.2 1.75-5L1.75-5 3.1-7.05Q4.2-5.85 5.58-4.93 6.95-4 8.58-3.35 10.2-2.7 12.05-2.33 13.9-1.95 15.9-1.95L15.9-1.95Q20.55-1.95 23.18-3.68 25.8-5.4 25.8-8.8L25.8-8.8Q25.8-11.15 24.6-12.6 23.4-14.05 20.9-14.98 18.4-15.9 14.65-16.7L14.65-16.7Q10.9-17.5 8.28-18.5 5.65-19.5 4.33-21.2 3-22.9 3-25.8L3-25.8Q3-29 4.58-31.23 6.15-33.45 9-34.6 11.85-35.75 15.55-35.75L15.55-35.75Q17.85-35.75 19.83-35.3 21.8-34.85 23.48-33.93 25.15-33 26.6-31.6L26.6-31.6ZM45.05 0.5L45.05 0.5Q42.3 0.5 39.97-0.55 37.65-1.6 35.95-3.48 34.25-5.35 33.3-7.8 32.35-10.25 32.35-12.95L32.35-12.95Q32.35-15.7 33.3-18.13 34.25-20.55 35.97-22.43 37.7-24.3 40.02-25.38 42.35-26.45 45.05-26.45L45.05-26.45Q47.75-26.45 50.05-25.38 52.35-24.3 54.1-22.43 55.85-20.55 56.8-18.13 57.75-15.7 57.75-12.95L57.75-12.95Q57.75-10.25 56.8-7.8 55.85-5.35 54.12-3.48 52.4-1.6 50.07-0.55 47.75 0.5 45.05 0.5ZM34.85-12.85L34.85-12.85Q34.85-9.8 36.22-7.28 37.6-4.75 39.9-3.25 42.2-1.75 45-1.75L45-1.75Q47.8-1.75 50.12-3.28 52.45-4.8 53.82-7.38 55.2-9.95 55.2-13L55.2-13Q55.2-16.05 53.82-18.6 52.45-21.15 50.12-22.68 47.8-24.2 45.05-24.2L45.05-24.2Q42.25-24.2 39.95-22.65 37.65-21.1 36.25-18.55 34.85-16 34.85-12.85ZM67 0L64.5 0 64.5-23.95 60.84-23.95 60.84-26 64.5-26 64.5-26.85Q64.5-30 65.39-32.3 66.3-34.6 67.94-35.8 69.59-37 71.84-37L71.84-37Q73.34-37 74.75-36.55 76.14-36.1 77.05-35.35L77.05-35.35 76.14-33.55Q75.5-34.15 74.44-34.48 73.39-34.8 72.3-34.8L72.3-34.8Q69.75-34.8 68.37-32.77 67-30.75 67-26.9L67-26.9 67-26 74.39-26 74.39-23.95 67-23.95 67 0ZM90.09-3.25L90.84-1.25Q90.59-1.15 89.84-0.75 89.09-0.35 87.94-0.03 86.79 0.3 85.39 0.3L85.39 0.3Q84.04 0.3 82.87-0.23 81.69-0.75 80.99-1.8 80.29-2.85 80.29-4.35L80.29-4.35 80.29-23.95 76.64-23.95 76.64-26 80.29-26 80.29-34.9 82.79-34.9 82.79-26 88.84-26 88.84-23.95 82.79-23.95 82.79-4.95Q82.89-3.5 83.84-2.78 84.79-2.05 86.04-2.05L86.04-2.05Q87.59-2.05 88.74-2.58 89.89-3.1 90.09-3.25L90.09-3.25ZM118.29-2.75L128.19-26 130.69-26 119.44 0 117.24 0 111.49-13.55 105.74 0 103.54 0 92.29-26 94.74-26 104.69-2.75 110.04-15.45 105.69-25.95 107.94-25.95 111.49-17.4 114.99-25.95 117.29-25.95 112.94-15.45 118.29-2.75ZM132.74-7.5L132.74-7.5Q132.74-9.85 134.14-11.58 135.54-13.3 137.99-14.28 140.44-15.25 143.64-15.25L143.64-15.25Q145.64-15.25 147.79-14.9 149.94-14.55 151.64-13.95L151.64-13.95 151.64-16.4Q151.64-20 149.56-22.15 147.49-24.3 143.84-24.3L143.84-24.3Q141.89-24.3 139.79-23.5 137.69-22.7 135.49-21.2L135.49-21.2 134.44-23Q136.99-24.7 139.36-25.58 141.74-26.45 144.09-26.45L144.09-26.45Q148.74-26.45 151.44-23.7 154.14-20.95 154.14-16.2L154.14-16.2 154.14-3.3Q154.14-2.7 154.41-2.4 154.69-2.1 155.24-2.05L155.24-2.05 155.24 0Q154.79 0.05 154.49 0.05 154.19 0.05 153.99 0.05L153.99 0.05Q153.04-0.1 152.51-0.75 151.99-1.4 151.94-2.2L151.94-2.2 151.94-4.25Q150.14-2 147.31-0.75 144.49 0.5 141.39 0.5L141.39 0.5Q138.94 0.5 136.96-0.55 134.99-1.6 133.86-3.43 132.74-5.25 132.74-7.5ZM150.64-5.35L150.64-5.35Q151.14-6 151.39-6.6 151.64-7.2 151.64-7.7L151.64-7.7 151.64-12Q149.84-12.7 147.89-13.05 145.94-13.4 143.89-13.4L143.89-13.4Q139.99-13.4 137.56-11.85 135.14-10.3 135.14-7.65L135.14-7.65Q135.14-6 135.99-4.6 136.84-3.2 138.36-2.35 139.89-1.5 141.89-1.5L141.89-1.5Q144.69-1.5 147.06-2.58 149.44-3.65 150.64-5.35ZM174.03-26.1L174.03-23.75Q170.53-23.65 167.91-21.68 165.28-19.7 164.24-16.25L164.24-16.25 164.24 0 161.74 0 161.74-26 164.14-26 164.14-19.6Q165.49-22.35 167.74-24.08 169.99-25.8 172.49-26.05L172.49-26.05Q172.99-26.1 173.39-26.1 173.78-26.1 174.03-26.1L174.03-26.1ZM188.83 0.5L188.83 0.5Q186.08 0.5 183.73-0.58 181.38-1.65 179.66-3.53 177.93-5.4 176.96-7.88 175.98-10.35 175.98-13.1L175.98-13.1Q175.98-16.8 177.63-19.8 179.28-22.8 182.18-24.63 185.08-26.45 188.68-26.45L188.68-26.45Q192.38-26.45 195.23-24.6 198.08-22.75 199.76-19.73 201.43-16.7 201.43-13.1L201.43-13.1Q201.43-12.8 201.43-12.5 201.43-12.2 201.38-12L201.38-12 178.58-12Q178.78-9.05 180.23-6.65 181.68-4.25 183.96-2.88 186.23-1.5 188.93-1.5L188.93-1.5Q191.63-1.5 194.03-2.9 196.43-4.3 197.38-6.5L197.38-6.5 199.58-5.9Q198.83-4.05 197.21-2.6 195.58-1.15 193.41-0.33 191.23 0.5 188.83 0.5ZM178.48-13.95L178.48-13.95 199.03-13.95Q198.83-17 197.43-19.35 196.03-21.7 193.76-23.05 191.48-24.4 188.73-24.4L188.73-24.4Q185.98-24.4 183.73-23.05 181.48-21.7 180.08-19.35 178.68-17 178.48-13.95ZM223.08-2.3L244.18-2.3 244.18 0 220.53 0 220.53-35.5 243.73-35.5 243.73-33.2 223.08-33.2 223.08-19.25 241.13-19.25 241.13-17.05 223.08-17.05 223.08-2.3ZM271.32-14.95L271.32 0 268.82 0 268.82-14.5Q268.82-19.5 267.4-21.83 265.98-24.15 262.88-24.15L262.88-24.15Q260.68-24.15 258.55-23.1 256.43-22.05 254.85-20.23 253.28-18.4 252.58-16.1L252.58-16.1 252.58 0 250.08 0 250.08-26 252.43-26 252.43-19.8Q253.48-21.8 255.23-23.28 256.98-24.75 259.13-25.6 261.28-26.45 263.57-26.45L263.57-26.45Q265.73-26.45 267.2-25.68 268.68-24.9 269.6-23.45 270.53-22 270.93-19.85 271.32-17.7 271.32-14.95L271.32-14.95ZM289.37 0.4L289.37 0.4Q286.72 0.4 284.45-0.7 282.17-1.8 280.55-3.73 278.92-5.65 278-8.03 277.07-10.4 277.07-12.95L277.07-12.95Q277.07-15.6 277.95-18.05 278.82-20.5 280.45-22.38 282.07-24.25 284.27-25.35 286.47-26.45 289.17-26.45L289.17-26.45Q292.57-26.45 295.1-24.68 297.62-22.9 299.37-20.35L299.37-20.35 299.37-26 301.67-26 301.67 0.5Q301.67 4 299.97 6.4 298.27 8.8 295.47 9.98 292.67 11.15 289.42 11.15L289.42 11.15Q284.87 11.15 282.2 9.5 279.52 7.85 277.87 5.15L277.87 5.15 279.57 4Q281.12 6.6 283.77 7.85 286.42 9.1 289.42 9.1L289.42 9.1Q292.07 9.1 294.3 8.13 296.52 7.15 297.85 5.23 299.17 3.3 299.17 0.5L299.17 0.5 299.17-5.2Q297.62-2.65 294.95-1.13 292.27 0.4 289.37 0.4ZM289.97-1.75L289.97-1.75Q291.62-1.75 293.17-2.35 294.72-2.95 296.02-3.98 297.32-5 298.17-6.25 299.02-7.5 299.17-8.75L299.17-8.75 299.17-17.3Q298.42-19.3 296.9-20.88 295.37-22.45 293.47-23.33 291.57-24.2 289.57-24.2L289.57-24.2Q287.22-24.2 285.37-23.2 283.52-22.2 282.25-20.58 280.97-18.95 280.3-16.93 279.62-14.9 279.62-12.9L279.62-12.9Q279.62-10.65 280.42-8.65 281.22-6.65 282.65-5.08 284.07-3.5 285.95-2.63 287.82-1.75 289.97-1.75ZM311.97 0L309.47 0 309.47-26 311.97-26 311.97 0ZM311.97-31.9L309.47-31.9 309.47-36.5 311.97-36.5 311.97-31.9ZM341.07-14.95L341.07 0 338.57 0 338.57-14.5Q338.57-19.5 337.14-21.83 335.72-24.15 332.62-24.15L332.62-24.15Q330.42-24.15 328.29-23.1 326.17-22.05 324.59-20.23 323.02-18.4 322.32-16.1L322.32-16.1 322.32 0 319.82 0 319.82-26 322.17-26 322.17-19.8Q323.22-21.8 324.97-23.28 326.72-24.75 328.87-25.6 331.02-26.45 333.32-26.45L333.32-26.45Q335.47-26.45 336.94-25.68 338.42-24.9 339.34-23.45 340.27-22 340.67-19.85 341.07-17.7 341.07-14.95L341.07-14.95ZM359.67 0.5L359.67 0.5Q356.92 0.5 354.57-0.58 352.22-1.65 350.49-3.53 348.77-5.4 347.79-7.88 346.82-10.35 346.82-13.1L346.82-13.1Q346.82-16.8 348.47-19.8 350.12-22.8 353.02-24.63 355.92-26.45 359.52-26.45L359.52-26.45Q363.22-26.45 366.07-24.6 368.92-22.75 370.59-19.73 372.27-16.7 372.27-13.1L372.27-13.1Q372.27-12.8 372.27-12.5 372.27-12.2 372.22-12L372.22-12 349.42-12Q349.62-9.05 351.07-6.65 352.52-4.25 354.79-2.88 357.07-1.5 359.77-1.5L359.77-1.5Q362.47-1.5 364.87-2.9 367.27-4.3 368.22-6.5L368.22-6.5 370.42-5.9Q369.67-4.05 368.04-2.6 366.42-1.15 364.24-0.33 362.07 0.5 359.67 0.5ZM349.32-13.95L349.32-13.95 369.87-13.95Q369.67-17 368.27-19.35 366.87-21.7 364.59-23.05 362.32-24.4 359.57-24.4L359.57-24.4Q356.82-24.4 354.57-23.05 352.32-21.7 350.92-19.35 349.52-17 349.32-13.95ZM388.81 0.5L388.81 0.5Q386.06 0.5 383.71-0.58 381.36-1.65 379.64-3.53 377.91-5.4 376.94-7.88 375.96-10.35 375.96-13.1L375.96-13.1Q375.96-16.8 377.61-19.8 379.26-22.8 382.16-24.63 385.06-26.45 388.66-26.45L388.66-26.45Q392.36-26.45 395.21-24.6 398.06-22.75 399.74-19.73 401.41-16.7 401.41-13.1L401.41-13.1Q401.41-12.8 401.41-12.5 401.41-12.2 401.36-12L401.36-12 378.56-12Q378.76-9.05 380.21-6.65 381.66-4.25 383.94-2.88 386.21-1.5 388.91-1.5L388.91-1.5Q391.61-1.5 394.01-2.9 396.41-4.3 397.36-6.5L397.36-6.5 399.56-5.9Q398.81-4.05 397.19-2.6 395.56-1.15 393.39-0.33 391.21 0.5 388.81 0.5ZM378.46-13.95L378.46-13.95 399.01-13.95Q398.81-17 397.41-19.35 396.01-21.7 393.74-23.05 391.46-24.4 388.71-24.4L388.71-24.4Q385.96-24.4 383.71-23.05 381.46-21.7 380.06-19.35 378.66-17 378.46-13.95ZM419.21-26.1L419.21-23.75Q415.71-23.65 413.09-21.68 410.46-19.7 409.41-16.25L409.41-16.25 409.41 0 406.91 0 406.91-26 409.31-26 409.31-19.6Q410.66-22.35 412.91-24.08 415.16-25.8 417.66-26.05L417.66-26.05Q418.16-26.1 418.56-26.1 418.96-26.1 419.21-26.1L419.21-26.1Z" opacity="1" transform="matrix(1,0,0,1,0,0)" fill="#c1c1c1" class="undefined-text-1" data-fill-palette-color="secondary" id="text-1"></path></svg></g></svg></g></svg></g></svg></g><g transform="matrix(1,0,0,1,129.88876050256658,0)"><svg viewBox="0 0 135.74247899486681 135.74078316713522" height="135.74078316713522" width="135.74247899486681"><g><svg xmlns="http://www.w3.org/2000/svg" xmlns:xlink="http://www.w3.org/1999/xlink" version="1.0" x="0" y="0" viewBox="10 10 80.0009994506836 80" enable-background="new 0 0 100 100" xml:space="preserve" height="135.74078316713522" width="135.74247899486681" class="icon-icon-0" data-fill-palette-color="accent" id="icon-0"><path fill="none" stroke="#C1C1C1" stroke-linecap="round" stroke-linejoin="round" stroke-miterlimit="10" d="M25 69.998L22.499 90 25 69.998z"></path><path fill="none" stroke="#C1C1C1" stroke-linecap="round" stroke-linejoin="round" stroke-miterlimit="10" d="M47.5 49.169c-1.557 0.927-3.238 1.454-4.999 1.454-2.249 0-4.371-0.833-6.26-2.294v0.548c0 1.844-0.744 3.514-1.953 4.717-0.616 0.615-1.351 1.109-2.167 1.445l-18.755 7.773C11.285 64.893 10 67.762 10 70.936V90h37.5V49.169z"></path><path fill="none" stroke="#C1C1C1" stroke-linecap="round" stroke-linejoin="round" stroke-miterlimit="10" d="M47.5 10.912C45.943 10.327 44.262 10 42.501 10c-7.262 0-13.239 5.446-14.104 12.478v4.059c-1.84 0.654-3.163 2.391-3.163 4.454 0 4.038 2.05 7.311 4.606 7.424 2.35 7.242 7.131 12.209 12.66 12.209 1.761 0 3.442-0.506 4.999-1.429V10.912z"></path><path fill="none" stroke="#C1C1C1" stroke-linecap="round" stroke-linejoin="round" stroke-miterlimit="10" d="M77.272 53.51l-2.653-2.652L77.272 53.51z"></path><circle fill="none" stroke="#C1C1C1" stroke-linecap="round" stroke-linejoin="round" stroke-miterlimit="10" cx="77.499" cy="77.498" r="5.7"></circle><path fill="none" stroke="#C1C1C1" stroke-linecap="round" stroke-linejoin="round" stroke-miterlimit="10" d="M81.088 86.158c1.466-0.605 3.117-0.002 3.891 1.338 0.956-0.717 1.802-1.564 2.517-2.52-1.34-0.771-1.942-2.424-1.335-3.893 0.608-1.467 2.203-2.207 3.695-1.805 0.084-0.582 0.143-1.174 0.143-1.781 0-0.605-0.059-1.195-0.143-1.777-1.492 0.402-3.089-0.344-3.695-1.809-0.607-1.469-0.005-3.121 1.335-3.891-0.715-0.957-1.562-1.805-2.517-2.521-0.773 1.344-2.427 1.947-3.893 1.34-1.468-0.609-2.212-2.203-1.807-3.699C78.695 65.059 78.104 65 77.5 65c-0.608 0-1.197 0.059-1.781 0.141 0.403 1.496-0.341 3.09-1.807 3.699-1.468 0.607-3.12 0.004-3.89-1.336-0.956 0.717-1.802 1.561-2.519 2.518 1.342 0.77 1.944 2.426 1.337 3.891-0.608 1.467-2.203 2.211-3.698 1.809-0.085 0.582-0.142 1.172-0.142 1.777 0 0.607 0.057 1.199 0.142 1.781 1.495-0.402 3.09 0.342 3.698 1.809 0.607 1.467 0.005 3.121-1.337 3.893 0.717 0.955 1.563 1.799 2.519 2.516 0.77-1.34 2.423-1.943 3.89-1.338 1.466 0.611 2.21 2.205 1.807 3.701C76.303 89.941 76.892 90 77.5 90c0.606 0 1.197-0.059 1.779-0.141C78.876 88.363 79.622 86.77 81.088 86.158z"></path><path fill="none" stroke="#C1C1C1" stroke-linecap="round" stroke-linejoin="round" stroke-miterlimit="10" d="M86.59 36.65v-3.304V36.65z"></path><path fill="none" stroke="#C1C1C1" stroke-linecap="round" stroke-linejoin="round" stroke-miterlimit="10" d="M78.777 10.357c-0.475-0.475-1.25-0.475-1.728 0.004l0 0L58.892 28.513 55.003 35l6.482-3.889 18.159-18.159 0 0c0.477-0.476 0.476-1.251 0-1.727L78.777 10.357z"></path><path fill="none" stroke="#C1C1C1" stroke-linecap="round" stroke-linejoin="round" stroke-miterlimit="10" d="M75.32 12.086l2.595 2.595L75.32 12.086z"></path><path fill="none" stroke="#C1C1C1" stroke-linecap="round" stroke-linejoin="round" stroke-miterlimit="10" d="M73.591 13.816l2.595 2.595L73.591 13.816z"></path><path fill="none" stroke="#C1C1C1" stroke-linecap="round" stroke-linejoin="round" stroke-miterlimit="10" d="M58.892 28.516l2.594 2.595L58.892 28.516z"></path><path fill="none" stroke="#C1C1C1" stroke-linecap="round" stroke-linejoin="round" stroke-miterlimit="10" d="M83.902 56.6L71.527 44.229c-1.464-1.464-3.839-1.464-5.304 0l0 0L47.5 62.953v15.578l7.234 7.238c1.465 1.465 3.838 1.469 5.303 0l6.528-6.527c-0.462-0.094-0.946-0.094-1.423 0.037-0.085-0.582-0.142-1.174-0.142-1.781 0-0.605 0.057-1.195 0.142-1.777 1.495 0.402 3.09-0.342 3.698-1.809 0.607-1.465 0.005-3.121-1.337-3.891 0.717-0.957 1.563-1.801 2.519-2.518 0.77 1.34 2.422 1.943 3.89 1.336 1.466-0.609 2.21-2.203 1.807-3.699C76.303 65.059 76.892 65 77.5 65c0.604 0 1.195 0.059 1.779 0.141-0.13 0.479-0.13 0.965-0.038 1.426l4.659-4.66h0.002C85.366 60.441 85.366 58.064 83.902 56.6z"></path><path fill="none" stroke="#C1C1C1" stroke-linecap="round" stroke-linejoin="round" stroke-miterlimit="10" d="M65.34 45.115L47.5 62.953v6.748l14.304 14.305 4.765-4.764c-0.463-0.094-0.949-0.094-1.426 0.037-0.085-0.582-0.142-1.174-0.142-1.781 0-0.605 0.057-1.195 0.142-1.777 1.495 0.402 3.09-0.342 3.698-1.809 0.607-1.465 0.005-3.121-1.337-3.891 0.717-0.957 1.563-1.801 2.519-2.518 0.77 1.34 2.422 1.943 3.89 1.336 1.466-0.609 2.21-2.203 1.807-3.699C76.303 65.059 76.892 65 77.5 65c0.604 0 1.195 0.059 1.779 0.141-0.13 0.479-0.13 0.965-0.038 1.43l3.777-3.779L65.34 45.115z"></path><path fill="none" stroke="#C1C1C1" stroke-linecap="round" stroke-linejoin="round" stroke-miterlimit="10" d="M86.692 16.817H75.779L61.485 31.111 55.003 35l3.889-6.486 11.697-11.696H47.5v36.367h9.771l8.953-8.955 0 0c1.465-1.464 3.84-1.464 5.304 0l8.954 8.955h6.211c1.826 0 3.308-1.482 3.308-3.308V20.125C90 18.298 88.519 16.817 86.692 16.817z"></path><path fill="none" stroke="#C1C1C1" stroke-linecap="round" stroke-linejoin="round" stroke-miterlimit="10" d="M73.505 19.09l-12.02 12.021L55.003 35l3.889-6.486 9.425-9.423H47.5v31.82h12.044l6.68-6.681 0 0c1.465-1.464 3.84-1.464 5.304 0l6.681 6.681h4.973V19.09H73.505z"></path></svg></g></svg></g><g></g></svg></g><defs></defs></svg><rect width="330.24776190971915" height="247.2" fill="none" stroke="none" visibility="hidden"></rect></g></svg></g></svg>